<svg xmlns="http://www.w3.org/2000/svg" viewBox="0 0 120 140">
  <!-- Shield outline -->
  <path d="M60 2 C60 2, 2 18, 2 18 L2 78 C2 108, 30 128, 60 138 C90 128, 118 108, 118 78 L118 18 C118 18, 60 2, 60 2Z" fill="#351C15"/>
  <!-- Gold interior -->
  <path d="M60 12 C60 12, 10 26, 10 26 L10 76 C10 102, 34 120, 60 130 C86 120, 110 102, 110 76 L110 26 C110 26, 60 12, 60 12Z" fill="#FFB406"/>
  <!-- Package/bow graphic -->
  <g fill="#351C15">
    <rect x="38" y="38" width="44" height="32" rx="2"/>
    <path d="M42 38 L60 24 L78 38Z"/>
    <rect x="56" y="24" width="8" height="46"/>
    <rect x="38" y="50" width="44" height="4"/>
  </g>
  <!-- UPS text -->
  <text x="60" y="104" text-anchor="middle" fill="#351C15" font-size="30" font-weight="800" font-family="'Futura','Arial Black',sans-serif" letter-spacing="2">ups</text>
</svg>
